<?xml version="1.0" encoding="UTF-8" standalone="no"?>
<svg
   xmlns:dc="http://purl.org/dc/elements/1.1/"
   xmlns:cc="http://creativecommons.org/ns#"
   xmlns:rdf="http://www.w3.org/1999/02/22-rdf-syntax-ns#"
   xmlns:svg="http://www.w3.org/2000/svg"
   xmlns="http://www.w3.org/2000/svg"
   xmlns:sodipodi="http://sodipodi.sourceforge.net/DTD/sodipodi-0.dtd"
   xmlns:inkscape="http://www.inkscape.org/namespaces/inkscape"
   width="65px"
   viewBox="0 0 65 65"
   version="1.1"
   height="65px"
   id="svg4586"
   sodipodi:docname="ArchColombia.svg"
   inkscape:version="0.92.4 5da689c313, 2019-01-14">
  <metadata
     id="metadata4590">
    <rdf:RDF>
      <cc:Work
         rdf:about="">
        <dc:format>image/svg+xml</dc:format>
        <dc:type
           rdf:resource="http://purl.org/dc/dcmitype/StillImage" />
        <dc:title></dc:title>
      </cc:Work>
    </rdf:RDF>
  </metadata>
  <sodipodi:namedview
     pagecolor="#ffffff"
     bordercolor="#666666"
     borderopacity="1"
     objecttolerance="10"
     gridtolerance="10"
     guidetolerance="10"
     inkscape:pageopacity="0"
     inkscape:pageshadow="2"
     inkscape:window-width="1920"
     inkscape:window-height="1051"
     id="namedview4588"
     showgrid="false"
     inkscape:zoom="8"
     inkscape:cx="-7.3885042"
     inkscape:cy="51.796067"
     inkscape:window-x="0"
     inkscape:window-y="0"
     inkscape:window-maximized="1"
     inkscape:current-layer="layer2" />
  <defs
     id="defs4579">
    <linearGradient
       id="lg"
       y1="26.924%"
       x2="28.129%"
       x1="54.638%"
       y2="79.519%">
      <stop
         stop-color="#fff"
         stop-opacity="0"
         offset="0"
         id="stop4574" />
      <stop
         stop-color="#fff"
         stop-opacity=".27451"
         offset="1"
         id="stop4576" />
    </linearGradient>
  </defs>
  <path
     d="m32.253 0.20991c-2.849 6.9843-4.579 11.559-7.75 18.336 1.944 2.061 4.334 4.453 8.211 7.164-4.168-1.715-7.009-3.432-9.133-5.219-4.059 8.47-10.423 20.531-23.328 43.719 10.14-5.854 18.002-9.466 25.328-10.844-0.314-1.351-0.481-2.819-0.469-4.344l0.008-0.32c0.161-6.498 3.542-11.495 7.547-11.156 4.004 0.339 7.122 5.884 6.961 12.383-0.031 1.224-0.173 2.4-0.414 3.492 7.247 1.418 15.034 5.013 25.039 10.789-1.973-3.632-3.74-6.905-5.422-10.024-2.649-2.053-5.411-4.724-11.047-7.617 3.874 1.007 6.65 2.171 8.812 3.469-17.098-31.835-18.48-36.068-24.343-49.828v-0.00009z"
     id="path4581"
     fill="#1793D1"
     style="fill:#cf0821;fill-opacity:1" />
  <g
     inkscape:groupmode="layer"
     id="layer2"
     inkscape:label="ArchCol">
    <path
       style="fill:#fcd20e;stroke:#000000;stroke-width:0.03779528;stroke-linecap:butt;stroke-linejoin:miter;stroke-opacity:1;stroke-miterlimit:4;stroke-dasharray:none;fill-opacity:1"
       d="m 19.40625,28.75 c 25.9375,0 25.9375,0 25.9375,0 0,0 -12.83775,-26.8928601 -13.09075,-28.54018 0,0 -7.4345,18.28825 -7.75,18.33609 0,0 5.721875,5.889535 8.211,7.164 0,0 -6.427,-2.681215 -9.133,-5.219 z"
       id="path4621"
       inkscape:connector-curvature="0" />
    <path
       style="fill:#000094;fill-opacity:1;stroke:#000000;stroke-width:0.04412312;stroke-linecap:butt;stroke-linejoin:miter;stroke-miterlimit:4;stroke-dasharray:none;stroke-opacity:1"
       d="m 19.408964,28.748665 c 0,0 -7.097076,13.681923 -7.295908,13.953021 l 14.139074,0.309359 c 0,0 5.50145,-12.312289 12.173956,-0.132583 L 52.741892,42.613297 45.341037,28.748665"
       id="path4658"
       inkscape:connector-curvature="0"
       sodipodi:nodetypes="cccccc" />
  </g>
</svg>
